# xmcd
#
# Track frame offsets: 
#        150
#        21775
#        43182
#        67447
#        82447
#        101835
#        118812
#        138007
#        160502
#
# Disc length: 2466 seconds
#
# Revision: 0
# Processed by: cddbd v1.4PL0 Copyright (c) Steve Scherf et al.
# Submitted via: ExactAudioCopy v0.90b4
#
DISCID=8109a009
DTITLE=Robert Covington - Blues In The Night
DYEAR=1988
DGENRE=Blues
TTITLE0=Trust in Me
TTITLE1=I Just Want to Make Love to You
TTITLE2=Better Watch Your Step
TTITLE3=I Don't Care
TTITLE4=Playing on Me
TTITLE5=Blues in the Night
TTITLE6=I Want to Know
TTITLE7=Mean Mistreater
TTITLE8=I Want to Thank Ya
EXTD=
EXTT0=
EXTT1=
EXTT2=
EXTT3=
EXTT4=
EXTT5=
EXTT6=
EXTT7=
EXTT8=
PLAYORDER=
